<?xml version="1.0" encoding="UTF-8"?>
<svg version="1.1" xmlns="http://www.w3.org/2000/svg" width="512" height="512">
<path d="M0 0 C0.92220337 0.00182281 1.84440674 0.00364563 2.79455566 0.00552368 C16.841657 0.05219735 30.55997339 0.56067231 44.375 3.3125 C45.27976074 3.48942383 46.18452148 3.66634766 47.11669922 3.84863281 C53.58657431 5.14731809 59.98813627 6.65502172 66.375 8.3125 C67.62095947 8.63492676 67.62095947 8.63492676 68.89208984 8.96386719 C103.17583645 18.0563653 134.94322134 34.94908514 162.375 57.3125 C162.92575195 57.76028809 163.47650391 58.20807617 164.04394531 58.66943359 C177.40993434 69.62497503 189.7986461 81.61848954 200.375 95.3125 C201.53515625 96.74722656 201.53515625 96.74722656 202.71875 98.2109375 C238.24029381 142.83768716 256.92122501 199.14424287 256.6875 255.9375 C256.68476578 257.32080505 256.68476578 257.32080505 256.68197632 258.73205566 C256.63530265 272.779157 256.12682769 286.49747339 253.375 300.3125 C253.19807617 301.21726074 253.02115234 302.12202148 252.83886719 303.05419922 C251.54018191 309.52407431 250.03247828 315.92563627 248.375 322.3125 C248.16004883 323.14313965 247.94509766 323.9737793 247.72363281 324.82958984 C238.6311347 359.11333645 221.73841486 390.88072134 199.375 418.3125 C198.92721191 418.86325195 198.47942383 419.41400391 198.01806641 419.98144531 C187.06252497 433.34743434 175.06901046 445.7361461 161.375 456.3125 C159.94027344 457.47265625 159.94027344 457.47265625 158.4765625 458.65625 C113.84981284 494.17779381 57.54325713 512.85872501 0.75 512.625 C-0.17220337 512.62317719 -1.09440674 512.62135437 -2.04455566 512.61947632 C-16.091657 512.57280265 -29.80997339 512.06432769 -43.625 509.3125 C-44.52976074 509.13557617 -45.43452148 508.95865234 -46.36669922 508.77636719 C-52.83657431 507.47768191 -59.23813627 505.96997828 -65.625 504.3125 C-66.45563965 504.09754883 -67.2862793 503.88259766 -68.14208984 503.66113281 C-102.42583645 494.5686347 -134.19322134 477.67591486 -161.625 455.3125 C-162.17575195 454.86471191 -162.72650391 454.41692383 -163.29394531 453.95556641 C-176.65993434 443.00002497 -189.0486461 431.00651046 -199.625 417.3125 C-200.78515625 415.87777344 -200.78515625 415.87777344 -201.96875 414.4140625 C-237.49029381 369.78731284 -256.17122501 313.48075713 -255.9375 256.6875 C-255.93567719 255.76529663 -255.93385437 254.84309326 -255.93197632 253.89294434 C-255.88530265 239.845843 -255.37682769 226.12752661 -252.625 212.3125 C-252.44807617 211.40773926 -252.27115234 210.50297852 -252.08886719 209.57080078 C-250.79018191 203.10092569 -249.28247828 196.69936373 -247.625 190.3125 C-247.41004883 189.48186035 -247.19509766 188.6512207 -246.97363281 187.79541016 C-237.8811347 153.51166355 -220.98841486 121.74427866 -198.625 94.3125 C-198.17721191 93.76174805 -197.72942383 93.21099609 -197.26806641 92.64355469 C-186.31252497 79.27756566 -174.31901046 66.8888539 -160.625 56.3125 C-159.19027344 55.15234375 -159.19027344 55.15234375 -157.7265625 53.96875 C-113.09981284 18.44720619 -56.79325713 -0.23372501 0 0 Z " fill="#575757" transform="translate(255.625,-0.3125)"/>
<path d="M0 0 C0.70523102 -0.00226556 1.41046203 -0.00453111 2.13706368 -0.00686532 C4.48821784 -0.01316976 6.83931382 -0.01237825 9.19047546 -0.0115509 C10.88117039 -0.01454462 12.57186463 -0.01794764 14.26255798 -0.02172852 C18.84737517 -0.03055125 23.43217368 -0.03290591 28.01699853 -0.0335443 C30.8838643 -0.03425581 33.75072535 -0.03639204 36.61758995 -0.03904152 C46.62610042 -0.04828936 56.63459758 -0.05237712 66.64311218 -0.05158997 C75.96116525 -0.05098938 85.27916038 -0.06153881 94.59719878 -0.07733363 C102.60673873 -0.0904249 110.61625977 -0.09577319 118.62581033 -0.09513456 C123.40529842 -0.09488003 128.18473502 -0.09770629 132.96421242 -0.10831261 C137.46138303 -0.11802024 141.95845321 -0.11805452 146.45562744 -0.11079597 C148.10149978 -0.10975343 149.74737847 -0.11209332 151.39323997 -0.11815643 C170.90617298 -0.18535505 170.90617298 -0.18535505 177.58378601 3.82121277 C183.39475025 9.96423211 185.47325456 17.67524201 188.00492859 25.57115173 C189.08590777 28.94216494 190.19040226 32.30544364 191.29472351 35.66886902 C191.50929199 36.32395447 191.72386047 36.97903992 191.94493103 37.65397644 C193.97465366 43.81876796 196.22914286 49.87306004 198.61503601 55.90715027 C199.69098097 58.90961829 200.45565337 61.89711258 201.19511414 64.99601746 C202.48430046 69.77911723 204.41623515 74.36561086 206.20487976 78.97941589 C207.93891278 83.5526489 209.2754464 87.99279692 210.22062016 92.79151249 C210.74515422 95.02256389 211.46986819 97.00931504 212.30459595 99.13967896 C214.24658865 104.90335049 214.2143765 110.46878436 214.20707703 116.50309753 C214.21715286 117.71075775 214.2272287 118.91841797 214.23760986 120.16267395 C214.26109876 123.44985305 214.27113457 126.73668952 214.27305722 130.02394223 C214.2751997 132.08226939 214.28162295 134.14053809 214.28954887 136.19885063 C214.31722897 143.39226404 214.3295626 150.58551153 214.32719421 157.77897644 C214.32539 164.46567396 214.3571009 171.15164692 214.4044252 177.83816105 C214.44372743 183.59811463 214.45974296 189.35783189 214.45782799 195.11791843 C214.45706573 198.55002898 214.4654681 201.98149339 214.49736214 205.41346931 C214.52679154 209.24083225 214.51812108 213.06632888 214.50004578 216.89372253 C214.52533356 218.58263359 214.52533356 218.58263359 214.5511322 220.30566406 C214.47389234 226.74930469 213.54453399 230.67321144 209.44879055 235.71636868 C205.04878503 239.43398713 198.37746846 238.31766419 192.95878601 238.32121277 C191.98618835 238.33345886 191.0135907 238.34570496 190.01152039 238.35832214 C177.62100266 238.38348907 177.62100266 238.38348907 172.39628601 234.25871277 C167.00431723 227.20767668 169.77128601 215.60135376 169.77128601 208.13371277 C110.37128601 208.13371277 50.97128601 208.13371277 -10.22871399 208.13371277 C-10.22871399 215.06371277 -10.22871399 221.99371277 -10.22871399 229.13371277 C-16.22871399 237.13371277 -16.22871399 237.13371277 -20.22871399 238.13371277 C-23.83003198 238.3551434 -27.43374631 238.31885031 -31.04121399 238.32121277 C-32.50011047 238.33958191 -32.50011047 238.33958191 -33.98847961 238.35832214 C-46.37899734 238.38348907 -46.37899734 238.38348907 -51.60371399 234.25871277 C-54.31390174 230.71462109 -54.35476408 227.35447034 -54.36915588 222.98796082 C-54.37486603 221.94803482 -54.38057617 220.90810883 -54.38645935 219.83666992 C-54.38757721 218.70106125 -54.38869507 217.56545258 -54.3898468 216.39543152 C-54.39481171 215.19492661 -54.39977661 213.99442169 -54.40489197 212.75753784 C-54.41699172 209.46573538 -54.42445735 206.17399639 -54.42890263 202.88217926 C-54.43183926 200.82102182 -54.43594535 198.75986987 -54.4404068 196.69871521 C-54.45408059 190.23701123 -54.46374576 183.77531989 -54.46760869 177.31360245 C-54.47207831 169.87945564 -54.48957541 162.44549372 -54.51860929 155.01140308 C-54.54031823 149.25066924 -54.55031798 143.48998703 -54.55164981 137.72921276 C-54.552692 134.29597035 -54.55847256 130.86290173 -54.57646942 127.42970276 C-54.59362893 123.58871199 -54.59162477 119.7481644 -54.5851593 115.90715027 C-54.59437408 114.78773544 -54.60358887 113.66832062 -54.61308289 112.51498413 C-54.5610422 102.58664775 -52.36092985 93.61219692 -48.84590149 84.34855652 C-48.40544495 83.17236755 -47.9649884 81.99617859 -47.51118469 80.78434753 C-47.04671936 79.55901306 -46.58225403 78.33367859 -46.10371399 77.07121277 C-45.10976755 74.41444761 -44.12286299 71.75511676 -43.13887024 69.09465027 C-42.76845863 68.09350945 -42.76845863 68.09350945 -42.39056396 67.07214355 C-39.96954939 60.49249705 -37.73453102 53.85501491 -35.54121399 47.19621277 C-35.17850403 46.09946228 -34.81579407 45.00271179 -34.4420929 43.87272644 C-33.00717888 39.5301895 -31.57503891 35.18674673 -30.14619446 30.84220886 C-29.1023751 27.68521104 -28.04251205 24.53402583 -26.97871399 21.38371277 C-26.67360901 20.44922302 -26.36850403 19.51473328 -26.05415344 18.55192566 C-23.85646607 12.1001901 -21.33886967 6.52614022 -15.79121399 2.25871277 C-10.69902031 0.02311555 -5.49308044 0.00731446 0 0 Z " fill="#FDFDFD" transform="translate(176.2287139892578,151.8662872314453)"/>
<path d="M0 0 C0.92220337 0.00182281 1.84440674 0.00364563 2.79455566 0.00552368 C16.841657 0.05219735 30.55997339 0.56067231 44.375 3.3125 C45.27976074 3.48942383 46.18452148 3.66634766 47.11669922 3.84863281 C53.58657431 5.14731809 59.98813627 6.65502172 66.375 8.3125 C67.62095947 8.63492676 67.62095947 8.63492676 68.89208984 8.96386719 C103.17583645 18.0563653 134.94322134 34.94908514 162.375 57.3125 C162.92575195 57.76028809 163.47650391 58.20807617 164.04394531 58.66943359 C177.40993434 69.62497503 189.7986461 81.61848954 200.375 95.3125 C201.53515625 96.74722656 201.53515625 96.74722656 202.71875 98.2109375 C209.56807148 106.81593948 215.42713752 115.96309533 221.16357422 125.33984375 C222.16347211 126.96805313 223.18963917 128.58009922 224.22265625 130.1875 C225.375 132.3125 225.375 132.3125 225.375 135.3125 C223.390625 136.96875 223.390625 136.96875 220.625 138.8125 C216.18037138 141.91859182 212.14057291 145.18390813 208.1875 148.875 C207.67783691 149.34929443 207.16817383 149.82358887 206.64306641 150.31225586 C205.21786407 151.64298368 203.79631943 152.97762574 202.375 154.3125 C186.38952973 169.22819692 166.90534698 182.4000627 144.15625 181.6640625 C126.41607119 179.42162417 111.83728843 169.21891529 99.70703125 156.6875 C97.05971709 153.99140785 94.28314746 151.52454326 91.41015625 149.07421875 C89.97695095 147.83357462 88.57011694 146.56213665 87.18359375 145.26953125 C62.45333081 122.25042324 31.66456237 106.2962435 -2.6953125 107.0703125 C-34.8894029 108.34595123 -62.97175686 124.35166248 -86.046875 145.94140625 C-89.56095038 149.17329073 -93.23635509 152.17524443 -96.9609375 155.16015625 C-98.65897778 156.53203337 -100.33404313 157.93320719 -101.9765625 159.37109375 C-116.88891857 172.16380054 -133.69529219 177.47917205 -153.17578125 176.13671875 C-172.96010371 173.37688889 -188.92880426 157.35794428 -202.15869141 143.72216797 C-207.84389393 137.92140636 -214.0335075 133.03658822 -220.625 128.3125 C-219.70428921 123.99659449 -217.58120318 120.63128924 -215.25 116.9375 C-214.80446777 116.22996582 -214.35893555 115.52243164 -213.89990234 114.79345703 C-209.2734446 107.57540838 -204.09281078 100.90581548 -198.625 94.3125 C-198.15868164 93.74321777 -197.69236328 93.17393555 -197.21191406 92.58740234 C-186.25378039 79.24886421 -174.30562361 66.87851478 -160.625 56.3125 C-159.66851562 55.5390625 -158.71203125 54.765625 -157.7265625 53.96875 C-113.09981284 18.44720619 -56.79325713 -0.23372501 0 0 Z " fill="#565656" transform="translate(255.625,-0.3125)"/>
<path d="M0 0 C1.11246094 0.24363281 2.22492188 0.48726563 3.37109375 0.73828125 C27.24346706 6.56148445 47.45571539 22.94520558 65.0859375 39.30078125 C68.570777 42.52869559 72.09398844 45.71083896 75.63671875 48.875 C77.19503765 50.27619915 78.73977929 51.6926677 80.26953125 53.125 C91.97788509 63.95163893 106.65377395 71.4631079 122.859375 71.203125 C145.77484184 69.72103013 162.42680482 56.40347634 178.38793945 41.2019043 C193.07650463 27.30783179 193.07650463 27.30783179 200 25 C206.03224829 36.93029561 211.59507431 48.9118804 216.125 61.5 C216.69142212 63.06415649 216.69142212 63.06415649 217.26928711 64.65991211 C220.87478617 74.9387251 220.87478617 74.9387251 221 80 C219.84765625 81.96875 219.84765625 81.96875 218.0625 83.5 C217.49660156 84.0053125 216.93070312 84.510625 216.34765625 85.03125 C215.18556641 86.00578125 215.18556641 86.00578125 214 87 C212.7582907 88.09542097 211.51750588 89.19189024 210.27734375 90.2890625 C188.22576072 109.57431791 164.46617043 123.95758886 135 128 C133.80117188 128.18304688 132.60234375 128.36609375 131.3671875 128.5546875 C126.52373934 129.19523633 121.8760412 129.20341767 117 129 C115.71222656 128.95617187 114.42445313 128.91234375 113.09765625 128.8671875 C103.19330811 128.25078396 103.19330811 128.25078396 100.296875 125.21484375 C99.23808567 122.83256775 98.61265006 120.5320284 98 118 C97.33191424 116.38765129 96.64393292 114.78341963 95.9375 113.1875 C94.55086092 109.69291444 93.54456999 106.27833985 92.71875 102.61328125 C90.90466029 95.19840971 88.25410696 88.12848962 85.5625 81 C84.60246528 78.43861573 83.64645226 75.87574787 82.69140625 73.3125 C82.00328857 71.46978516 82.00328857 71.46978516 81.30126953 69.58984375 C79.74261783 65.28995357 78.3305909 60.9529047 76.97241211 56.5859375 C75.27136314 52.06233451 73.29458102 48.37332109 69 46 C60.49081431 43.48064597 52.0095436 43.71751912 43.22436523 43.74121094 C41.53160451 43.73849741 39.83884497 43.73493445 38.14608765 43.73059082 C33.56975342 43.72150833 28.99350982 43.72499375 24.4171741 43.73134899 C19.61763699 43.73642964 14.81810738 43.73171189 10.01856995 43.72857666 C1.96134047 43.72494338 -6.09585228 43.72971973 -14.15307617 43.73925781 C-23.45701653 43.75014482 -32.76086924 43.74661242 -42.06480747 43.735605 C-50.06675387 43.72651836 -58.06867393 43.72525348 -66.07062382 43.73048234 C-70.84388123 43.73359399 -75.6170975 43.73403347 -80.39035225 43.72740936 C-84.8777195 43.72161636 -89.36497412 43.7256685 -93.85232925 43.73719788 C-95.49539567 43.73983386 -97.13847162 43.73909758 -98.78153419 43.73467255 C-101.03140816 43.7291736 -103.28092548 43.73610331 -105.53077698 43.74603271 C-107.41582365 43.74716379 -107.41582365 43.74716379 -109.33895206 43.74831772 C-114.78894369 44.12298266 -119.48763279 44.75649807 -123.8125 48.3125 C-127.26279279 52.55143114 -129.37505633 56.62902508 -131.05859375 61.8203125 C-131.43878662 62.97950195 -131.81897949 64.13869141 -132.21069336 65.33300781 C-132.61553955 66.58436523 -133.02038574 67.83572266 -133.4375 69.125 C-134.09149457 71.11574137 -134.74847267 73.10548342 -135.40553284 75.09521484 C-136.10887306 77.22549222 -136.81035112 79.35637713 -137.51171875 81.48730469 C-139.86601167 88.63129841 -142.23707621 95.76935236 -144.64505005 102.89544678 C-145.17251874 104.462679 -145.69603315 106.03124774 -146.21554565 107.60113525 C-146.94527602 109.80516743 -147.68785888 112.00446535 -148.43359375 114.203125 C-148.75650391 115.19326096 -148.75650391 115.19326096 -149.0859375 116.20339966 C-150.29728282 119.72388665 -150.79206721 120.86137814 -154 123 C-174.26518083 126.37028222 -195.33814128 123.5448071 -214 115 C-214.9269165 114.58258545 -214.9269165 114.58258545 -215.87255859 114.15673828 C-226.09777267 109.50113108 -235.11548154 103.85234752 -244 97 C-245.36318359 95.97326172 -245.36318359 95.97326172 -246.75390625 94.92578125 C-255.54318196 88.04892619 -263.21808572 79.97275541 -271 72 C-269.07156847 64.21411198 -266.55455925 56.88641941 -263.4375 49.5 C-263.00711426 48.47132813 -262.57672852 47.44265625 -262.13330078 46.3828125 C-257.97340065 36.61962785 -253.14153814 27.27664753 -248 18 C-237.7106104 24.22481291 -229.33365251 32.53388506 -221 41.125 C-206.8404994 55.33002954 -190.47274055 65.71545071 -170.0625 66.3125 C-153.37565396 65.97121897 -138.28891884 57.92757154 -126 47 C-124.83999983 45.99570911 -123.67842039 44.99324067 -122.515625 43.9921875 C-118.095165 40.17921929 -113.67872308 36.36109098 -109.29931641 32.50097656 C-79.02267045 5.82110509 -40.49290515 -10.26896487 0 0 Z " fill="#010101" transform="translate(282,109)"/>
<path d="M0 0 C3.89121934 3.18372491 7.48935085 6.47392137 10.97094727 10.10522461 C28.91388106 28.69932531 52.55896156 43.518016 78 49 C78.88042969 49.20367187 79.76085937 49.40734375 80.66796875 49.6171875 C93.11599324 52.12396209 106.45763709 51.64490005 119 50 C117.60936687 54.8129714 116.21020282 59.58514949 114.375 64.25 C111.71567784 71.5026968 111.83299368 78.51801672 111.79467773 86.15576172 C111.78477814 87.3758342 111.77487854 88.59590668 111.76467896 89.85295105 C111.73856974 93.18512879 111.71667555 96.51728358 111.69667697 99.84950018 C111.67474331 103.33687708 111.64739088 106.82421144 111.62062073 110.31155396 C111.57079329 116.90932552 111.52581774 123.50712082 111.48259836 130.10493863 C111.43314072 137.61886855 111.37825433 145.13275578 111.32291877 152.64664435 C111.20925155 168.0977234 111.10237955 183.54884178 111 199 C110.67 199 110.34 199 110 199 C109.67 187.78 109.34 176.56 109 165 C106.69 165.33 104.38 165.66 102 166 C86.60406443 167.66571173 71.53165157 160.80651018 59.6875 151.421875 C53.80857882 146.61648118 48.33765703 141.47434552 43.03125 136.04296875 C36.1993381 129.17164198 28.47297905 123.15361171 21 117 C20.11699219 116.26136719 19.23398437 115.52273438 18.32421875 114.76171875 C16.04110823 112.83534043 16.04110823 112.83534043 13 112 C13 111.34 13 110.68 13 110 C12.34386719 109.75378906 11.68773438 109.50757813 11.01171875 109.25390625 C7.18305245 107.65987009 3.51172394 105.80887211 -0.1875 103.9375 C-0.91130859 103.57333984 -1.63511719 103.20917969 -2.38085938 102.83398438 C-4.25472602 101.89095009 -6.1274425 100.94563115 -8 100 C-8.66 99.67 -9.32 99.34 -10 99 C-11.29825855 95.10522434 -11.18162239 91.38923584 -11.203125 87.328125 C-11.21013931 86.4621167 -11.21715363 85.5961084 -11.22438049 84.70385742 C-11.24197887 81.88585279 -11.24824296 79.06805774 -11.25 76.25 C-11.25067474 75.29283081 -11.25134949 74.33566162 -11.25204468 73.3494873 C-11.23595767 59.03715796 -10.8231619 45.07589673 -8 31 C-7.80712402 30.03674805 -7.61424805 29.07349609 -7.41552734 28.08105469 C-5.45180848 18.53507074 -3.24174621 9.19887263 0 0 Z " fill="#575757" transform="translate(11,181)"/>
<path d="M0 0 C5.37697268 22.82580745 8.26678709 44.42594378 8.25 67.875 C8.24940582 68.80245026 8.24881165 69.72990051 8.24819946 70.68545532 C8.24162988 73.37116425 8.22509397 76.05656341 8.203125 78.7421875 C8.1987291 79.54145157 8.19433319 80.34071564 8.18980408 81.16419983 C8.01315536 95.48026696 8.01315536 95.48026696 5 100 C3.29516602 100.96386719 3.29516602 100.96386719 1.25390625 101.796875 C0.50455811 102.11188965 -0.24479004 102.4269043 -1.0168457 102.75146484 C-1.81566162 103.08098145 -2.61447754 103.41049805 -3.4375 103.75 C-20.58356692 111.12076416 -34.43662989 122.3609166 -48 135 C-64.91578602 150.71972034 -82.86946451 162.66362096 -106.59375 162.203125 C-110 162 -110 162 -113 161 C-113 170.9 -113 180.8 -113 191 C-113.33 191 -113.66 191 -114 191 C-114.00146656 190.37107692 -114.00293312 189.74215384 -114.00444412 189.09417248 C-114.04158574 173.75168387 -114.10069723 158.40945808 -114.18390274 143.06715679 C-114.2236181 135.64755098 -114.25604849 128.22805008 -114.27099609 120.80834961 C-114.28405175 114.33713236 -114.31111533 107.86614667 -114.35461307 101.39505988 C-114.37714069 97.97241362 -114.39291597 94.55005203 -114.39188385 91.12732506 C-114.39425947 87.29506412 -114.42139019 83.46369777 -114.45410156 79.6315918 C-114.4490712 78.51164825 -114.44404083 77.39170471 -114.43885803 76.23782349 C-114.52480633 69.69894039 -115.52120547 64.50600651 -118.07094955 58.4687624 C-119.5011202 54.66837511 -119.73538476 51.03538236 -120 47 C-119.04480469 47.0721875 -118.08960938 47.144375 -117.10546875 47.21875 C-113.07156453 47.50832239 -109.03734575 47.76463441 -105 48 C-103.62521484 48.08507812 -103.62521484 48.08507812 -102.22265625 48.171875 C-67.35175866 49.27364112 -34.84244946 30.69367957 -10.13012695 7.59228516 C-8.89459642 6.42269451 -7.6650491 5.24674465 -6.44213867 4.06396484 C-2.20220452 0 -2.20220452 0 0 0 Z " fill="#575757" transform="translate(504,189)"/>
<path d="M0 0 C1.2084706 0.00092179 2.4169412 0.00184359 3.66203213 0.00279331 C4.33258914 0.00193889 5.00314615 0.00108446 5.69402307 0.00020415 C7.95734737 -0.00145254 10.22059873 0.00407376 12.48391628 0.00952244 C14.09980677 0.0098043 15.71569738 0.0096466 17.33158779 0.00907993 C21.73222579 0.0087919 26.13283678 0.01468954 30.53346848 0.02165389 C35.12725549 0.02788649 39.72104306 0.02849115 44.31483364 0.0296793 C53.0200511 0.03279289 61.72525607 0.04100665 70.43046802 0.05102879 C80.33840257 0.06218906 90.2463377 0.06770016 100.15427697 0.07272422 C120.54142609 0.08318925 140.92856396 0.10078923 161.31570339 0.12304783 C162.43350507 3.13590105 163.54853951 6.14977144 164.6631155 9.16381931 C164.97652637 10.00846493 165.28993725 10.85311054 165.61284542 11.72335148 C168.23460306 18.81976983 170.61258643 25.96695415 172.87820339 33.18554783 C173.63775819 35.58035261 174.39817632 37.97488373 175.15945339 40.36914158 C175.52296902 41.51366795 175.88648464 42.65819431 176.26101589 43.8374033 C177.99377245 49.23542129 179.80186756 54.6080165 181.64016628 59.97094822 C183.31570339 64.91206682 183.31570339 64.91206682 183.31570339 67.12304783 C114.67570339 67.12304783 46.03570339 67.12304783 -24.68429661 67.12304783 C-21.23792339 53.33755496 -21.23792339 53.33755496 -18.97726536 46.70898533 C-18.7293877 45.96959721 -18.48151005 45.23020908 -18.22612095 44.46841526 C-17.44564977 42.14348441 -16.65893542 39.82072855 -15.87179661 37.49804783 C-15.35769481 35.97084874 -14.84402116 34.44350545 -14.33078098 32.91601658 C-13.56306825 30.6318166 -12.794482 28.34793543 -12.022645 26.06512547 C-10.66457948 22.04810891 -9.32004315 18.02717591 -7.99533176 13.99902439 C-7.72127003 13.1679517 -7.44720829 12.33687901 -7.16484165 11.48062229 C-6.63768739 9.88001879 -6.11292786 8.27862413 -5.59083652 6.67636204 C-3.44045815 0.15771018 -3.44045815 0.15771018 0 0 Z " fill="#565656" transform="translate(176.6842966079712,173.87695217132568)"/>
<path d="M0 0 C-0.62075751 26.74900527 -11.21698492 53.91822041 -22 78 C-22.37334473 78.89162842 -22.74668945 79.78325684 -23.13134766 80.7019043 C-26.01487676 87.15317948 -29.41030736 90.66561009 -35.25 94.5625 C-36.03850342 95.10841797 -36.82700684 95.65433594 -37.6394043 96.21679688 C-64.81933704 114.65268231 -96.54204176 124.42284514 -129.4375 118.875 C-148.21478352 114.71937168 -165.97823339 105.95751054 -181 94 C-181.92296875 93.27941406 -182.8459375 92.55882812 -183.796875 91.81640625 C-189.945841 86.91591816 -195.54684925 81.6576439 -201 76 C-201.99 75.01 -202.98 74.02 -204 73 C-191.13 73 -178.26 73 -165 73 C-165 79.27 -165 85.54 -165 92 C-164.34 92 -163.68 92 -163 92 C-162.731875 92.763125 -162.46375 93.52625 -162.1875 94.3125 C-161.00584108 96.98678071 -160.35646345 98.31681182 -158 100 C-152.37123898 101.31853045 -146.68469115 101.18370647 -140.9375 101.1875 C-139.95716797 101.19974609 -138.97683594 101.21199219 -137.96679688 101.22460938 C-137.01740234 101.22654297 -136.06800781 101.22847656 -135.08984375 101.23046875 C-134.23253662 101.23457764 -133.37522949 101.23868652 -132.49194336 101.24291992 C-127.99396566 100.80444752 -125.48540039 99.46754974 -122.23828125 96.33984375 C-118.41439907 90.56735312 -119.21319503 83.23464409 -119.1875 76.5625 C-119.1643287 75.14905042 -119.1389579 73.73563508 -119.11132812 72.32226562 C-119.04881626 68.88153714 -119.01621303 65.44129426 -119 62 C-117.77925781 62.04640625 -116.55851562 62.0928125 -115.30078125 62.140625 C-105.14814511 62.4105484 -96.52248095 61.958932 -87 58 C-86.19046875 57.68417969 -85.3809375 57.36835938 -84.546875 57.04296875 C-73.09935442 51.98255816 -63.03691736 43.13128666 -54.0625 34.5625 C-17.83414977 0 -17.83414977 0 0 0 Z " fill="#010101" transform="translate(510,288)"/>
<path d="M0 0 C1.11890625 0.47308594 2.2378125 0.94617188 3.390625 1.43359375 C22.20716227 9.5996451 37.83950075 23.41749912 52 38 C42.30126644 47.69873356 18.12676976 49.56869395 5 52 C4.15083008 52.16516113 3.30166016 52.33032227 2.42675781 52.50048828 C-24.7015043 57.59823983 -55.94479487 57.38915086 -83 52 C-83.90476074 51.82307617 -84.80952148 51.64615234 -85.74169922 51.46386719 C-103.58653942 47.88190758 -121.1626302 42.94387879 -138 36 C-136.86132347 34.86132347 -135.72072095 33.72454669 -134.57421875 32.59375 C-133.52943468 31.53600334 -132.51034813 30.45221004 -131.51953125 29.34375 C-99.56275421 -5.17249431 -43.1809578 -21.89940467 0 0 Z " fill="#000000" transform="translate(295,457)"/>
<path d="M0 0 C5.3537465 1.55652055 10.00150947 3.9817509 14.875 6.625 C15.65875 7.04523438 16.4425 7.46546875 17.25 7.8984375 C19.16892057 8.9281022 21.08477603 9.96347567 23 11 C23 11.66 23 12.32 23 13 C23.59208252 13.11593506 24.18416504 13.23187012 24.79418945 13.35131836 C27.13815742 14.04062914 28.40517104 14.85253594 30.29296875 16.37890625 C30.91486084 16.88010986 31.53675293 17.38131348 32.17749023 17.89770508 C32.84079346 18.4470874 33.50409668 18.99646973 34.1875 19.5625 C35.23176147 20.41847778 35.23176147 20.41847778 36.29711914 21.29174805 C45.46142937 28.90736247 53.98953669 37.22631252 62.578125 45.4765625 C71.69277681 53.94981289 82.04550318 60.44702147 94 64 C95.155 64.4125 96.31 64.825 97.5 65.25 C105.09430781 66.87735167 112.33696565 65.95787929 120 65 C120 76.55 120 88.1 120 100 C120.66 100 121.32 100 122 100 C122.226875 100.7425 122.45375 101.485 122.6875 102.25 C124.52092678 106.09146563 127.22976824 108.11488412 131 110 C132.88472859 110.15344209 134.77427874 110.24959571 136.6640625 110.31640625 C137.78554687 110.35830078 138.90703125 110.40019531 140.0625 110.44335938 C141.238125 110.48267578 142.41375 110.52199219 143.625 110.5625 C144.80835938 110.60568359 145.99171875 110.64886719 147.2109375 110.69335938 C150.14050328 110.79967426 153.07015588 110.90170642 156 111 C153.04288533 114.20892624 149.78378249 115.52129724 145.75 117 C145.04488281 117.26127686 144.33976563 117.52255371 143.61328125 117.79174805 C136.53488398 120.31918379 129.4236191 121.80866472 122 123 C120.86498047 123.19722656 120.86498047 123.19722656 119.70703125 123.3984375 C89.8808383 127.94923807 60.08273336 115.72274333 36.4375 98.41015625 C35.22685308 97.50569273 34.0184875 96.598167 32.8125 95.6875 C32.2347583 95.25453613 31.6570166 94.82157227 31.06176758 94.37548828 C29.6682427 93.29976255 28.32838123 92.15520593 27 91 C27 90.34 27 89.68 27 89 C25.515 88.505 25.515 88.505 24 88 C22.62968345 85.55079168 21.48132736 83.19348776 20.375 80.625 C20.03235107 79.83697998 19.68970215 79.04895996 19.33666992 78.23706055 C11.39745759 59.45684035 5.66667594 40.04070109 2 20 C1.87012695 19.29584961 1.74025391 18.59169922 1.60644531 17.86621094 C0.52864605 11.8794436 -0.28305029 6.08558133 0 0 Z " fill="#000000" transform="translate(1,280)"/>
<path d="M0 0 C-0.84820312 0.57105469 -1.69640625 1.14210937 -2.5703125 1.73046875 C-9.19363161 6.2772672 -15.35704341 11.02648633 -21.1875 16.5625 C-36.21557319 30.82345498 -52.22261824 42.26488649 -71 51 C-71.80566406 51.40863281 -72.61132812 51.81726562 -73.44140625 52.23828125 C-86.34418701 58.57949608 -101.14990014 60.1791148 -115.3125 60.1875 C-116.92801758 60.20586914 -116.92801758 60.20586914 -118.57617188 60.22460938 C-125.29349565 60.23681529 -131.47583079 59.61435001 -138 58 C-106.25824846 24.76942334 -55.13573747 7.34284986 -11 0 C-9.72898438 -0.22042969 -8.45796875 -0.44085938 -7.1484375 -0.66796875 C-4.34047388 -0.96409395 -2.62195314 -0.94390313 0 0 Z " fill="#000000" transform="translate(229,2)"/>
<path d="M0 0 C49.57689246 5.58260806 98.19822333 28.42254818 135 62 C125.65587022 68.22941986 107.57799431 65.67363671 96.9375 63.9375 C76.88761457 59.9149682 57.79237816 49.74834005 42 37 C41.15179688 36.35417969 40.30359375 35.70835938 39.4296875 35.04296875 C33.70195376 30.63494795 28.63984472 25.74358139 23.5859375 20.59765625 C17.57476345 14.55924123 10.93757143 9.27260306 4.3203125 3.91796875 C2 2 2 2 0 0 Z " fill="#000000" transform="translate(291,2)"/>
<path d="M0 0 C5.93485313 3.43039802 10.41841711 7.39641208 13.06640625 13.83203125 C13.73440079 20.54667769 14.09130325 27.14165962 10.06640625 32.83203125 C9.38578125 33.84265625 8.70515625 34.85328125 8.00390625 35.89453125 C4.05320185 40.3909786 -1.41776789 43.09059859 -7.23046875 44.31640625 C-13.50175726 44.71670126 -18.9263221 42.52383323 -23.93359375 38.83203125 C-29.36921393 32.54915853 -31.31583892 26.98674048 -31.20703125 18.75 C-30.61038623 12.38294529 -28.19927439 7.63752433 -23.43359375 3.39453125 C-16.57087507 -2.0800466 -8.30602106 -3.3069245 0 0 Z " fill="#595959" transform="translate(346.93359375,272.16796875)"/>
<path d="M0 0 C4.12485612 3.69015231 6.61852064 8.07236774 7.3359375 13.578125 C7.44430271 20.99030527 6.50105298 27.21463877 1.31640625 32.8203125 C-3.93351802 37.49443863 -7.72147665 39.28942412 -14.875 39.3125 C-16.06867188 39.32925781 -17.26234375 39.34601563 -18.4921875 39.36328125 C-24.91274515 38.69834599 -28.80978889 35.74155468 -33 31 C-38.21596998 24.31854493 -37.99410039 18.1903315 -37 10 C-34.86999636 3.60998909 -29.72847562 -0.70868896 -24 -4 C-15.29180426 -6.8332054 -7.45016638 -5.05499744 0 0 Z " fill="#595959" transform="translate(189,276)"/>
<path d="M0 0 C15.18 0 30.36 0 46 0 C51.62914075 13.50993779 51.62914075 13.50993779 53.640625 19.99609375 C53.85313904 20.67752945 54.06565308 21.35896515 54.28460693 22.06105042 C54.72403226 23.47402103 55.16075338 24.88783556 55.59472656 26.30249023 C56.2571783 28.46088832 56.92869526 30.616313 57.6015625 32.77148438 C61.13546063 44.16649112 61.13546063 44.16649112 62 49 C57.08945636 47.61305256 53.12418504 45.40865599 48.9375 42.5625 C48.28193115 42.1193042 47.6263623 41.6761084 46.95092773 41.21948242 C35.58516362 33.39565228 25.6894991 23.93675172 15.69140625 14.47265625 C12.09552936 11.07456632 8.42760832 7.76789409 4.69921875 4.515625 C3.07802364 3.0695935 1.53611208 1.53611208 0 0 Z " fill="#020202" transform="translate(292,175)"/>
<path d="M0 0 C15.84 0 31.68 0 48 0 C44.45564058 3.54435942 40.88608406 6.99949956 37.1875 10.375 C36.70474609 10.8184375 36.22199219 11.261875 35.72460938 11.71875 C-2.8327567 47 -2.8327567 47 -14 47 C-13.37399634 41.23738254 -11.88615568 36.0565722 -10.05859375 30.56640625 C-9.80404419 29.78712769 -9.54949463 29.00784912 -9.28723145 28.20495605 C-8.34366688 25.32205263 -7.39000016 22.44246348 -6.4375 19.5625 C-4.313125 13.106875 -2.18875 6.65125 0 0 Z " fill="#030303" transform="translate(173,175)"/>
<path d="M0 0 C10.89 0 21.78 0 33 0 C28.84798235 4.8440206 25.1585724 8.86837012 20.25 12.75 C19.61674805 13.25370117 18.98349609 13.75740234 18.33105469 14.27636719 C13.18034596 18.27582897 7.80171133 21.8337348 2.25 25.25 C1.08839355 25.96687988 1.08839355 25.96687988 -0.09667969 26.69824219 C-5.61103132 30 -5.61103132 30 -9 30 C-9 28 -9 28 -6.6875 25.625 C-5.25540805 24.22621252 -3.82148587 22.82921004 -2.375 21.4453125 C-0.20136718 17.57970414 -0.4261584 13.61242272 -0.3125 9.25 C-0.209375 6.1975 -0.10625 3.145 0 0 Z " fill="#020202" transform="translate(167,361)"/>
<path d="M0 0 C9.31971168 -0.55265137 17.11777989 2.42259536 25.4609375 6.265625 C26.1209375 6.925625 26.7809375 7.585625 27.4609375 8.265625 C21.62597967 8.29045949 15.79105304 8.30854849 9.95605469 8.32055664 C7.97362736 8.32556603 5.99120368 8.3323754 4.00878906 8.34106445 C1.14907932 8.35327929 -1.7105813 8.35888739 -4.5703125 8.36328125 C-5.44772095 8.36844254 -6.32512939 8.37360382 -7.22912598 8.37892151 C-12.42531256 8.37938859 -17.39623823 8.01778908 -22.5390625 7.265625 C-16.46158357 1.7166225 -7.83555486 0.81971958 0 0 Z " fill="#555555" transform="translate(249.5390625,503.734375)"/>
<path d="M0 0 C-0.56376362 6.90610436 -2.68520353 12.2242833 -8 16.8125 C-12.71486068 20.25041925 -15.34574117 21.25335345 -21.25 21.125 C-22.32765625 21.10695313 -23.4053125 21.08890625 -24.515625 21.0703125 C-25.33546875 21.04710937 -26.1553125 21.02390625 -27 21 C-24.22606694 14.08075125 -7.81623207 0 0 0 Z " fill="#060606" transform="translate(196,294)"/>
<path d="M0 0 C4.38459483 1.44007793 7.50325726 3.82677552 10.9375 6.8125 C11.93652344 7.66457031 12.93554688 8.51664062 13.96484375 9.39453125 C14.45839355 9.82072754 14.95194336 10.24692383 15.46044922 10.68603516 C17.08082926 12.06898558 18.72862927 13.4146626 20.37890625 14.76171875 C21.24386719 15.50035156 22.10882813 16.23898437 23 17 C23 17.33 23 17.66 23 18 C16.05960102 18.78242494 11.55740663 18.01332373 5.91796875 13.78125 C2.2983733 10.41967052 0.17930933 7.10688466 -0.25 2.0625 C-0.1675 1.381875 -0.085 0.70125 0 0 Z " fill="#0B0B0B" transform="translate(317,297)"/>
<path d="M0 0 C0.66 0.33 1.32 0.66 2 1 C0.60064115 4.40364888 -0.87004732 5.90806188 -4 7.8125 C-4.70125 8.25207031 -5.4025 8.69164062 -6.125 9.14453125 C-6.74375 9.42683594 -7.3625 9.70914063 -8 10 C-8.66 9.67 -9.32 9.34 -10 9 C-6.7 6.03 -3.4 3.06 0 0 Z " fill="#0F0F0F" transform="translate(165,148)"/>
<path d="M0 0 C2.912575 0.08566397 4.56798024 0.57910955 6.66796875 2.625 C8.16091772 4.38391375 9.60436262 6.16313019 11 8 C10.34 8.66 9.68 9.32 9 10 C8.62875 9.2575 8.2575 8.515 7.875 7.75 C5.67904862 4.52927131 3.28108675 3.04156509 0 1 C0 0.67 0 0.34 0 0 Z " fill="#252525" transform="translate(349,153)"/>
</svg>
